<svg width="50" height="50" viewBox="0 0 50 50" fill="none" xmlns="http://www.w3.org/2000/svg">
<g clip-path="url(#clip0_1_103)">
<path d="M25.1689 2.88574C25.3825 2.80602 25.6175 2.80504 25.8311 2.88477L25.8301 2.88574L37.6846 7.24609H37.6836C38.089 7.39184 38.3373 7.78602 38.3184 8.20117H38.3203V21.6133L49.54 25.7422C49.9223 25.8828 50.1747 26.2495 50.1748 26.6582V41.2266H50.0928C49.9884 41.4689 49.7905 41.6607 49.54 41.7529L37.6846 46.1143L37.6855 46.1152C37.4721 46.1952 37.2369 46.1953 37.0234 46.1152V46.1143L25.5 41.874L13.9756 46.1143C13.7623 46.1942 13.5278 46.1951 13.3145 46.1152V46.1143L1.45996 41.7529C1.07137 41.6101 0.825862 41.2389 0.826172 40.8379H0.825195V26.3096H0.891602C0.990425 26.0493 1.19577 25.8405 1.45996 25.7422L12.6797 21.6133V7.81348H12.7471C12.8459 7.55346 13.0505 7.34531 13.3145 7.24707L13.3154 7.24609L25.1689 2.88574ZM2.75586 40.1553L12.6797 43.8066V31.7021L2.75586 28.0508V40.1553ZM14.6104 31.7021V43.8066L24.5352 40.1553V28.0508L14.6104 31.7021ZM26.4648 40.1553L36.3896 43.8066V31.7021L26.4648 28.0508V40.1553ZM38.3203 31.7021V43.8066L48.2441 40.1553V28.0508L38.3203 31.7021ZM4.6084 26.6572L13.6455 29.9824L22.6191 26.6807L13.582 23.3545L4.6084 26.6572ZM28.3799 26.6807L37.3535 29.9824L46.3906 26.6572L37.417 23.3545L28.3799 26.6807ZM14.6104 21.6133L24.5352 25.2656V13.207L14.6104 9.55469V21.6133ZM26.4648 13.207V25.2656L36.3896 21.6133V9.55469L26.4648 13.207ZM16.4648 8.16211L25.5 11.4873L34.5342 8.16211L25.5 4.83691L16.4648 8.16211Z" fill="#FC85B4" stroke="#FC85B4" stroke-width="0.35"/>
</g>
<defs>
<clipPath id="clip0_1_103">
<rect width="50" height="50" fill="white"/>
</clipPath>
</defs>
</svg>
