<svg width="44" height="44" viewBox="0 0 44 44" fill="none" xmlns="http://www.w3.org/2000/svg">
<g clip-path="url(#clip0_1_115)">
<path d="M21.4482 0.408203C21.7856 0.196906 22.2144 0.19688 22.5518 0.408203L43.2627 13.3848C43.5664 13.575 43.7506 13.9092 43.75 14.2676C43.7493 14.6258 43.5639 14.9582 43.2598 15.1475L38.7832 17.9336L38.4404 18.1475L38.7842 18.3594L43.2559 21.1152C43.5621 21.3041 43.7492 21.6384 43.75 21.998C43.7507 22.3577 43.5651 22.6918 43.2598 22.8818L38.7832 25.668L38.4404 25.8818L38.7842 26.0938L43.2559 28.8496C43.5616 29.0381 43.7486 29.3714 43.75 29.7305C43.7513 30.0896 43.5671 30.4245 43.2627 30.6152L22.5518 43.5918C22.3831 43.6975 22.1915 43.75 22 43.75C21.8085 43.75 21.617 43.6975 21.4482 43.5918L0.737305 30.6152C0.434039 30.4252 0.24996 30.0922 0.25 29.7344C0.250208 29.3764 0.434782 29.0434 0.738281 28.8535L5.18652 26.0732L5.52637 25.8613L5.18555 25.6494L0.740234 22.8818C0.435831 22.6923 0.250346 22.3595 0.25 22.001C0.249678 21.6425 0.434305 21.3092 0.738281 21.1191L5.18652 18.3389L5.52637 18.127L5.18555 17.915L0.740234 15.1475C0.436105 14.9583 0.250698 14.6259 0.25 14.2676C0.249515 13.9091 0.433639 13.575 0.737305 13.3848L21.4482 0.408203ZM7.3584 27.166L3.58691 29.5234L3.24805 29.7354L3.58691 29.9473L21.8672 41.4014L22 41.4844L22.1328 41.4014L40.4014 29.9551L40.7422 29.7412L40.4004 29.5303L36.6025 27.1895L36.4707 27.1084L36.3389 27.1895L22.5488 35.7725C22.3808 35.8771 22.1906 35.9297 22 35.9297C21.8094 35.9297 21.6192 35.8771 21.4512 35.7725L7.62305 27.166L7.49023 27.084L7.3584 27.166ZM7.3584 19.4316L3.59277 21.7861L3.25293 21.998L3.59277 22.21L21.8682 33.585L22 33.667L22.1318 33.585C22.6155 33.2838 40.2908 22.283 40.3955 22.2178L40.7373 22.0039L40.3945 21.793L36.6025 19.4551L36.4707 19.374L36.3389 19.4561L22.5488 28.0381C22.3808 28.1427 22.1906 28.1953 22 28.1953C21.8094 28.1953 21.6192 28.1427 21.4512 28.0381L7.62305 19.4316L7.49023 19.3496L7.3584 19.4316ZM21.8672 2.59863L3.58984 14.0498L3.25098 14.2627L3.59082 14.4746L21.8682 25.8506L22 25.9326L22.1318 25.8506C22.6554 25.5246 40.2223 14.5909 40.4092 14.4746L40.749 14.2627L40.4102 14.0498L22.1328 2.59863L22 2.51562L21.8672 2.59863Z" fill="#F78CB6" stroke="#F78CB6" stroke-width="0.5"/>
</g>
<defs>
<clipPath id="clip0_1_115">
<rect width="44" height="44" fill="white"/>
</clipPath>
</defs>
</svg>
