<svg width="48" height="48" viewBox="0 0 48 48" fill="none" xmlns="http://www.w3.org/2000/svg">
<path d="M45.5205 32.5708C44.9228 32.9609 44.2168 33.1516 43.5039 33.1157V33.1147H31.3594V36.7368C31.2635 37.3162 30.7834 37.7548 30.1973 37.7974H17.8027C17.2166 37.7548 16.7365 37.3162 16.6406 36.7368V33.1147H4.50879L4.49609 33.1157C3.78323 33.1515 3.07718 32.9608 2.47949 32.5708L2.09277 32.3179V40.4478H2.09375C2.09185 40.4874 2.08974 40.5274 2.08984 40.5679C2.09172 41.8185 3.04358 42.8462 4.26172 42.9683L4.50879 42.98H43.4912V42.979L43.625 42.9771C44.9526 42.9052 45.9706 41.774 45.9062 40.4478H45.9072V32.3179L45.5205 32.5708ZM18.4824 35.9565H29.5176V29.603H18.4824V35.9565ZM43.4912 11.4585H4.51172C4.4041 11.4497 4.29607 11.4478 4.18848 11.4546C2.95909 11.5321 2.02501 12.587 2.09375 13.8149H2.09277V28.7407H2.09375L2.08984 28.8618C2.09178 30.1124 3.04364 31.1391 4.26172 31.2612L4.50879 31.2739H16.6406V28.5073C16.6406 28.2987 16.76 28.1189 16.9834 27.98C17.2092 27.8396 17.514 27.7622 17.7959 27.7622H30.2041C30.486 27.7622 30.7908 27.8396 31.0166 27.98C31.2399 28.1189 31.3594 28.2987 31.3594 28.5073V31.2739H43.4912V31.2729L43.625 31.27C44.9528 31.1982 45.9709 30.0673 45.9062 28.7407H45.9072L45.9062 13.8149C45.9123 13.7061 45.9112 13.5966 45.9014 13.4878C45.7903 12.2633 44.714 11.3598 43.4912 11.4585ZM18.4229 5.02295C17.0952 5.09481 16.0771 6.22593 16.1416 7.55225H16.1406V9.6167H31.8594V7.56592C31.8617 7.52172 31.8624 7.47635 31.8623 7.43115C31.86 6.09737 30.7772 5.01814 29.4434 5.02002H18.5566C18.5116 5.0199 18.4669 5.02061 18.4229 5.02295ZM14.2998 7.54541C14.2988 7.50892 14.2979 7.47164 14.2979 7.43408C14.2986 5.08297 16.2055 3.17738 18.5566 3.17822H29.4434L29.5557 3.18018C31.8324 3.23939 33.6446 5.07527 33.7002 7.32666V9.6167H43.501L43.7822 9.61475C46.0354 9.67756 47.8107 11.555 47.748 13.8081V40.4536C47.749 40.4913 47.7501 40.5292 47.75 40.5659L47.7441 40.7847C47.6296 43.0341 45.769 44.8226 43.4912 44.8218H4.50879L4.39648 44.8198C2.1198 44.7606 0.307633 42.9247 0.251953 40.6733V13.8081C0.249325 13.7147 0.249142 13.6213 0.25293 13.5278C0.342308 11.3461 2.12899 9.63402 4.28809 9.61279L4.49805 9.6167H14.2998V7.54541Z" fill="#F78CB6" stroke="#F78CB6" stroke-width="0.5"/>
</svg>
